G04*
G04 #@! TF.GenerationSoftware,Altium Limited,Altium Designer,26.5.1 (12)*
G04*
G04 Layer_Physical_Order=1*
G04 Layer_Color=255*
G04 Board_Origin=121479484|76924161*
%FSLAX45Y45*%
%MOMM*%
G71*
G04*
G04 #@! TF.SameCoordinates,70F601D8-87FB-4B92-8B9A-2FBC50858502*
G04*
G04*
G04 #@! TF.FilePolarity,Positive*
G04*
G01*
G75*
%ADD11C,0.50000*%
%ADD13C,2.20000*%
%ADD14C,2.50000*%
%ADD15C,1.70000*%
%ADD16C,1.50000*%
%ADD17R,1.50000X1.50000*%
%ADD18R,1.50000X1.50000*%
%ADD19C,0.25000*%
%ADD20C,0.38100*%
%ADD21C,0.15240*%
%ADD22C,0.20320*%
%ADD23C,0.15300*%
%ADD24C,0.60960*%
%ADD25C,0.68580*%
G36*
X1200000Y1146496D02*
X1020000D01*
X1008336Y1141664D01*
X1003504Y1130000D01*
Y-601196D01*
X990804Y-603185D01*
X975409Y-587790D01*
X954832Y-575910D01*
X931881Y-569760D01*
X908120D01*
X885169Y-575910D01*
X864592Y-587790D01*
X856038Y-596343D01*
X843338Y-591083D01*
Y-508899D01*
X843926Y-508020D01*
X845897Y-498109D01*
X843926Y-488199D01*
X838312Y-479797D01*
X770203Y-411688D01*
X769916Y-411496D01*
X725898Y-367478D01*
Y904280D01*
X739094D01*
X755898Y911240D01*
X768759Y924102D01*
X775720Y940906D01*
Y959094D01*
X768759Y975898D01*
X755898Y988759D01*
X739094Y995720D01*
X720906D01*
X704102Y988759D01*
X691241Y975898D01*
X684280Y959094D01*
Y940906D01*
X684280Y940905D01*
X681688Y938312D01*
X676074Y929911D01*
X674103Y920000D01*
Y-378205D01*
X676074Y-388115D01*
X681688Y-396517D01*
X733483Y-448312D01*
X733770Y-448504D01*
X796661Y-511395D01*
Y-591082D01*
X783961Y-596343D01*
X775409Y-587790D01*
X754831Y-575910D01*
X731880Y-569760D01*
X708120D01*
X685169Y-575910D01*
X664592Y-587790D01*
X653868Y-598514D01*
X641168Y-593253D01*
Y-567860D01*
X639394Y-558941D01*
X634341Y-551379D01*
X574647Y-491685D01*
X575720Y-489094D01*
Y-470906D01*
X568759Y-454102D01*
X555898Y-441241D01*
X539094Y-434280D01*
X520906D01*
X504102Y-441241D01*
X491241Y-454102D01*
X484280Y-470906D01*
Y-489094D01*
X491241Y-505898D01*
X504102Y-518759D01*
X520906Y-525720D01*
X539094D01*
X541685Y-524647D01*
X594277Y-577240D01*
X593054Y-589594D01*
X581852Y-594234D01*
X575409Y-587790D01*
X554831Y-575910D01*
X531880Y-569760D01*
X508120D01*
X485169Y-575910D01*
X464591Y-587790D01*
X456008Y-596374D01*
X443308Y-591113D01*
Y-519833D01*
X445898Y-518759D01*
X458759Y-505898D01*
X465720Y-489094D01*
Y-470906D01*
X458759Y-454102D01*
X445898Y-441241D01*
X429094Y-434280D01*
X410906D01*
X394102Y-441241D01*
X381241Y-454102D01*
X374280Y-470906D01*
Y-489094D01*
X381241Y-505898D01*
X394102Y-518759D01*
X396692Y-519833D01*
Y-578112D01*
X384959Y-582972D01*
X381646Y-579660D01*
X358752Y-566442D01*
X344999Y-562757D01*
Y-660000D01*
X294999D01*
Y-562757D01*
X281246Y-566442D01*
X258352Y-579660D01*
X255041Y-582971D01*
X243308Y-578111D01*
Y-559654D01*
X596481Y-206481D01*
X601534Y-198920D01*
X603308Y-190000D01*
Y939625D01*
X613026Y947544D01*
X620906Y944280D01*
X639094D01*
X655898Y951241D01*
X668759Y964102D01*
X675720Y980906D01*
Y999094D01*
X668759Y1015898D01*
X655898Y1028759D01*
X639094Y1035720D01*
X620906D01*
X604102Y1028759D01*
X591241Y1015898D01*
X584280Y999094D01*
Y987242D01*
X563519Y966481D01*
X558466Y958920D01*
X556692Y950000D01*
Y-180345D01*
X203519Y-533519D01*
X198466Y-541080D01*
X196692Y-550000D01*
Y-569760D01*
X29761D01*
Y-605176D01*
X17061Y-610436D01*
X-31688Y-561688D01*
X-40089Y-556074D01*
X-50000Y-554103D01*
X-354272D01*
X-454102Y-454272D01*
Y-210000D01*
X-456074Y-200089D01*
X-461688Y-191687D01*
X-574102Y-79273D01*
Y-12884D01*
X-571944Y-11990D01*
X-558011Y1944D01*
X-550470Y20148D01*
Y39852D01*
X-558011Y58056D01*
X-571944Y71989D01*
X-590148Y79530D01*
X-609852D01*
X-628056Y71989D01*
X-641990Y58056D01*
X-649530Y39852D01*
Y20148D01*
X-641990Y1944D01*
X-628056Y-11990D01*
X-625898Y-12884D01*
Y-70826D01*
X-627579Y-73045D01*
X-638598Y-79968D01*
X-642500Y-79192D01*
X-1070168D01*
X-1071241Y-76602D01*
X-1084102Y-63741D01*
X-1100906Y-56780D01*
X-1119094D01*
X-1135898Y-63741D01*
X-1148759Y-76602D01*
X-1155720Y-93406D01*
Y-111594D01*
X-1148759Y-128398D01*
X-1135898Y-141259D01*
X-1119094Y-148220D01*
X-1100906D01*
X-1084102Y-141259D01*
X-1071241Y-128398D01*
X-1070168Y-125808D01*
X-652154D01*
X-545808Y-232154D01*
Y-256547D01*
X-558508Y-259950D01*
X-567780Y-243891D01*
X-593891Y-217780D01*
X-625869Y-199317D01*
X-661537Y-189760D01*
X-698463D01*
X-734131Y-199317D01*
X-766109Y-217780D01*
X-792220Y-243891D01*
X-810683Y-275869D01*
X-820240Y-311537D01*
Y-346486D01*
X-1200000D01*
Y1200000D01*
X-724962D01*
Y1142319D01*
X-722300Y1128939D01*
X-714722Y1117597D01*
X-672403Y1075278D01*
X-661061Y1067700D01*
X-647681Y1065038D01*
X-410084D01*
X-403056Y1058011D01*
X-384852Y1050470D01*
X-365148D01*
X-346944Y1058011D01*
X-333011Y1071944D01*
X-325470Y1090148D01*
Y1109852D01*
X-333011Y1128056D01*
X-346944Y1141990D01*
X-365148Y1149530D01*
X-384852D01*
X-403056Y1141990D01*
X-410084Y1134962D01*
X-590259D01*
X-592785Y1147662D01*
X-591944Y1148010D01*
X-578011Y1161944D01*
X-570470Y1180148D01*
Y1190086D01*
X-560556Y1200000D01*
X352879D01*
X496692Y1056187D01*
Y39654D01*
X191685Y-265353D01*
X189094Y-264280D01*
X170906D01*
X154102Y-271241D01*
X141241Y-284102D01*
X134280Y-300906D01*
Y-319094D01*
X141241Y-335898D01*
X154102Y-348759D01*
X170906Y-355720D01*
X189094D01*
X205898Y-348759D01*
X218759Y-335898D01*
X225720Y-319094D01*
Y-300906D01*
X224647Y-298315D01*
X536481Y13519D01*
X541534Y21080D01*
X543308Y30000D01*
Y1065841D01*
X541534Y1074760D01*
X536481Y1082322D01*
X430536Y1188267D01*
X435397Y1200000D01*
X1200000D01*
Y1146496D01*
D02*
G37*
G36*
X1003504Y-718803D02*
Y-880000D01*
X1008336Y-891664D01*
X1020000Y-896496D01*
X1200000D01*
Y-1200000D01*
X775898D01*
Y-817108D01*
X836503Y-756503D01*
X841562Y-748931D01*
X843338Y-740000D01*
Y-728917D01*
X856038Y-723656D01*
X864592Y-732210D01*
X885169Y-744090D01*
X908120Y-750240D01*
X931881D01*
X954832Y-744090D01*
X975409Y-732210D01*
X990804Y-716815D01*
X1003504Y-718803D01*
D02*
G37*
G36*
X664592Y-732210D02*
X685169Y-744090D01*
X708120Y-750240D01*
X731880D01*
X754831Y-744090D01*
X773815Y-733130D01*
X780394Y-734505D01*
X787707Y-737872D01*
X787942Y-739053D01*
X741127Y-785867D01*
X740089Y-786074D01*
X731688Y-791688D01*
X726074Y-800089D01*
X724102Y-810000D01*
Y-1200000D01*
X695462D01*
X693308Y-1197846D01*
Y-929395D01*
X691534Y-920475D01*
X686481Y-912914D01*
X641168Y-867601D01*
Y-726747D01*
X653868Y-721486D01*
X664592Y-732210D01*
D02*
G37*
G36*
X-766109Y-442220D02*
X-734131Y-460683D01*
X-698463Y-470240D01*
X-674416D01*
Y-508045D01*
X-671755Y-521425D01*
X-664176Y-532767D01*
X-542222Y-654722D01*
X-530879Y-662300D01*
X-522826Y-663902D01*
X-524077Y-676602D01*
X-782500D01*
X-792411Y-678574D01*
X-800812Y-684188D01*
X-898405Y-781780D01*
X-906594D01*
X-923398Y-788741D01*
X-936259Y-801602D01*
X-943220Y-818406D01*
Y-836594D01*
X-936259Y-853398D01*
X-923398Y-866259D01*
X-906594Y-873220D01*
X-888406D01*
X-871602Y-866259D01*
X-858741Y-853398D01*
X-851780Y-836594D01*
Y-818406D01*
X-854709Y-811334D01*
X-771773Y-728398D01*
X-141030D01*
X-141029Y-728398D01*
X-128168Y-741259D01*
X-111364Y-748220D01*
X-93176D01*
X-89574Y-746728D01*
X-77805Y-754136D01*
X-76994Y-764448D01*
X-79490Y-766944D01*
X-87030Y-785148D01*
Y-804852D01*
X-79490Y-823056D01*
X-65556Y-836989D01*
X-47352Y-844530D01*
X-27648D01*
X-9444Y-836989D01*
X4489Y-823056D01*
X12030Y-804852D01*
Y-792536D01*
X24730Y-787275D01*
X223267Y-985812D01*
X231669Y-991426D01*
X241580Y-993398D01*
X329273D01*
X446780Y-1110905D01*
X446780Y-1110906D01*
Y-1129094D01*
X453741Y-1145898D01*
X466602Y-1158759D01*
X483406Y-1165720D01*
X501594D01*
X518398Y-1158759D01*
X531259Y-1145898D01*
X537107Y-1131781D01*
X549807Y-1134307D01*
Y-1170749D01*
X520556Y-1200000D01*
X302962D01*
X64647Y-961685D01*
X65720Y-959094D01*
Y-940906D01*
X58759Y-924102D01*
X45898Y-911240D01*
X29094Y-904280D01*
X10906D01*
X-5898Y-911240D01*
X-18759Y-924102D01*
X-25720Y-940906D01*
Y-959094D01*
X-18759Y-975898D01*
X-6075Y-988582D01*
X-17894Y-1000401D01*
X-24855Y-1017205D01*
Y-1035393D01*
X-17894Y-1052198D01*
X-6218Y-1063874D01*
X-18938Y-1076594D01*
X-25898Y-1093398D01*
Y-1111586D01*
X-18938Y-1128390D01*
X-6077Y-1141251D01*
X10727Y-1148212D01*
X28916D01*
X31506Y-1147139D01*
X72634Y-1188267D01*
X67774Y-1200000D01*
X-420000D01*
Y-1437500D01*
X-437500Y-1455000D01*
X-615000D01*
X-803504Y-1266496D01*
Y-1200000D01*
Y-1080240D01*
X-808336Y-1068576D01*
X-820000Y-1063745D01*
X-1070480D01*
X-1082144Y-1068576D01*
X-1086976Y-1080240D01*
Y-1200000D01*
X-1200000D01*
Y-428543D01*
X-779786D01*
X-766109Y-442220D01*
D02*
G37*
%LPC*%
G36*
X9852Y1124530D02*
X-9852D01*
X-28056Y1116989D01*
X-41990Y1103056D01*
X-49530Y1084852D01*
Y1074913D01*
X-62033Y1062411D01*
X-62403Y1062163D01*
X-84722Y1039845D01*
X-92300Y1028502D01*
X-94962Y1015123D01*
Y494482D01*
X-334482Y254962D01*
X-864916D01*
X-871944Y261990D01*
X-890148Y269530D01*
X-909852D01*
X-928056Y261990D01*
X-941989Y248056D01*
X-949530Y229852D01*
Y210148D01*
X-941989Y191944D01*
X-928056Y178011D01*
X-909852Y170470D01*
X-890148D01*
X-871944Y178011D01*
X-864916Y185038D01*
X-320000D01*
X-306620Y187700D01*
X-295278Y195278D01*
X-35278Y455278D01*
X-27699Y466621D01*
X-25038Y480000D01*
Y1000641D01*
X-13207Y1012472D01*
X-12837Y1012719D01*
X-86Y1025470D01*
X9852D01*
X28056Y1033010D01*
X41990Y1046943D01*
X49530Y1065147D01*
Y1084852D01*
X41990Y1103056D01*
X28056Y1116989D01*
X9852Y1124530D01*
D02*
G37*
G36*
X69852Y949530D02*
X50148D01*
X31944Y941989D01*
X18010Y928056D01*
X10470Y909852D01*
Y890148D01*
X18010Y871944D01*
X25038Y864916D01*
Y-65518D01*
X10086Y-80470D01*
X148D01*
X-18056Y-88010D01*
X-31990Y-101944D01*
X-39530Y-120148D01*
Y-139852D01*
X-31990Y-158056D01*
X-18056Y-171989D01*
X148Y-179530D01*
X19852D01*
X38056Y-171989D01*
X51989Y-158056D01*
X59530Y-139852D01*
Y-129914D01*
X84722Y-104722D01*
X92300Y-93379D01*
X94962Y-80000D01*
Y864916D01*
X101989Y871944D01*
X109530Y890148D01*
Y909852D01*
X101989Y928056D01*
X88056Y941989D01*
X69852Y949530D01*
D02*
G37*
G36*
X-154999Y-181627D02*
Y-305001D01*
X-31626D01*
X-35380Y-286130D01*
X-46717Y-258759D01*
X-63177Y-234126D01*
X-84126Y-213177D01*
X-108759Y-196717D01*
X-136130Y-185380D01*
X-154999Y-181627D01*
D02*
G37*
G36*
X-204999Y-181626D02*
X-223870Y-185380D01*
X-251241Y-196717D01*
X-275874Y-213177D01*
X-296823Y-234126D01*
X-313283Y-258759D01*
X-324620Y-286130D01*
X-328374Y-305001D01*
X-204999D01*
Y-181626D01*
D02*
G37*
G36*
X-31626Y-355001D02*
X-154999D01*
Y-478373D01*
X-136130Y-474620D01*
X-108759Y-463283D01*
X-84126Y-446823D01*
X-63177Y-425874D01*
X-46717Y-401241D01*
X-35380Y-373870D01*
X-31626Y-355001D01*
D02*
G37*
G36*
X-204999D02*
X-328373D01*
X-324620Y-373870D01*
X-313283Y-401241D01*
X-296823Y-425874D01*
X-275874Y-446823D01*
X-251241Y-463283D01*
X-223870Y-474620D01*
X-204999Y-478374D01*
Y-355001D01*
D02*
G37*
%LPD*%
D11*
X1160000Y-1160000D02*
X1450000D01*
X1510000Y-1220000D01*
Y-1430000D02*
Y-1220000D01*
X1400000Y-1450000D02*
X1490000D01*
X1510000Y-1430000D01*
X-1277515Y-387515D02*
X-679825D01*
X-1440000Y-550000D02*
X-1277515Y-387515D01*
X-1400001Y-890000D02*
X-1157500D01*
X-1440000Y650000D02*
X-1135000D01*
D13*
X-1400001Y-890000D02*
D03*
D14*
X-680000Y-330000D02*
D03*
X-180000D02*
D03*
D15*
X-1440000Y-550000D02*
D03*
Y650000D02*
D03*
D16*
X-1430000Y-1180000D02*
D03*
X319999Y-660000D02*
D03*
X520000D02*
D03*
X720000D02*
D03*
X920000D02*
D03*
D17*
X-1430000Y-1434000D02*
D03*
D18*
X120001Y-660000D02*
D03*
D19*
X1015725Y-1795089D02*
G03*
X1030493Y-1800000I14881J20089D01*
G01*
X1032798Y-1746111D02*
G03*
X1046077Y-1750000I13392J21111D01*
G01*
X995584Y-1843349D02*
G03*
X1012452Y-1850000I16981J18349D01*
G01*
X976236Y-1900000D02*
G03*
X847098Y-1926261I-61236J-29520D01*
G01*
X1047834Y-1696779D02*
G03*
X1059996Y-1700000I12275J21779D01*
G01*
X1500000Y-1600000D02*
G03*
X1525000Y-1575000I0J25000D01*
G01*
X1061417Y-1647256D02*
G03*
X1072693Y-1650000I11388J22256D01*
G01*
X250000Y-1800000D02*
G03*
X249887Y-1800000I0J-25000D01*
G01*
X995584Y-1843349D02*
G03*
X805918Y-1884572I-80584J-86171D01*
G01*
X782935Y-1900000D02*
G03*
X805918Y-1884572I-113J25000D01*
G01*
X1032798Y-1746111D02*
G03*
X784857Y-1754654I-117798J-183409D01*
G01*
D02*
G03*
X740988Y-1798238I130142J-174866D01*
G01*
X739512Y-1800000D02*
G03*
X740988Y-1798238I-18408J16917D01*
G01*
X1047834Y-1696779D02*
G03*
X755005Y-1714544I-132834J-232740D01*
G01*
D02*
G03*
X723060Y-1742511I159995J-214976D01*
G01*
X705330Y-1750000D02*
G03*
X723060Y-1742511I-113J25000D01*
G01*
X1061417Y-1647256D02*
G03*
X749415Y-1658056I-146417J-282264D01*
G01*
D02*
G03*
X701786Y-1693616I165585J-271464D01*
G01*
X685211Y-1700000D02*
G03*
X701786Y-1693616I-113J25000D01*
G01*
X1073876Y-1597605D02*
G03*
X1084441Y-1600000I10678J22605D01*
G01*
X822242Y-1950000D02*
G03*
X847098Y-1926261I-113J25000D01*
G01*
X666717Y-1650000D02*
G03*
X682344Y-1644423I-113J25000D01*
G01*
X752888Y-1850000D02*
G03*
X773743Y-1838614I-113J25000D01*
G01*
X1073876Y-1597605D02*
G03*
X682344Y-1644423I-158876J-331914D01*
G01*
X849866Y-1774682D02*
G03*
X773743Y-1838614I65134J-154838D01*
G01*
X1015725Y-1795089D02*
G03*
X849866Y-1774682I-100725J-134431D01*
G01*
X976236Y-1900000D02*
X1900000D01*
X1030493Y-1800000D02*
X1800000D01*
X1012452Y-1850000D02*
X1850000D01*
X1046077Y-1750000D02*
X1750000D01*
X1059996Y-1700000D02*
X1700000D01*
X1072693Y-1650000D02*
X1650000D01*
X1084441Y-1600000D02*
X1500000D01*
X915000Y-1929520D02*
X924731D01*
X1750000Y-1750000D02*
Y1750000D01*
X1800000Y-1800000D02*
Y1800000D01*
X1700000Y-1700000D02*
Y1700000D01*
X1850000Y-1850000D02*
Y1850000D01*
X1900000Y-1872500D02*
X1900000Y1900000D01*
X739512Y-1800000D02*
X739512D01*
X739512D01*
X666716Y-1650000D02*
X666717D01*
X685211Y-1700000D02*
X685211D01*
X705330Y-1750000D02*
X705330D01*
X739512Y-1800000D02*
X739512D01*
X1900000Y-1900000D02*
X1900000D01*
X752888Y-1850000D02*
X752888D01*
X782935Y-1900000D02*
X782935D01*
X822242Y-1950000D02*
X822242D01*
X-1900000Y-1900000D02*
X782935D01*
X-1900000D02*
Y1900000D01*
X1900000D01*
X250000Y-1800000D02*
X739512D01*
X-1800000D02*
X250000D01*
X-1800000D02*
Y1800000D01*
X1800000D01*
X-1750000Y-1750000D02*
X705330D01*
X-1750000D02*
Y1750000D01*
X1750000D01*
X-1850000Y1850000D02*
X1850000D01*
X1650000Y-1650000D02*
Y1650000D01*
X-1700000Y-1700000D02*
X685211D01*
X-1700000D02*
Y1700000D01*
X1700000D01*
X1950000Y-1950000D02*
Y1950000D01*
X-1650000Y-1650000D02*
X666716D01*
X-1850000Y-1850000D02*
X752888D01*
X-1950000Y-1950000D02*
X822242D01*
X924731Y-1929520D02*
X945211Y-1950000D01*
X-1950000Y1950000D02*
X1950000D01*
X-1950000Y-1950000D02*
Y1950000D01*
X945211Y-1950000D02*
X1950000D01*
X1900000Y-1900000D02*
Y-1872500D01*
X-1650000Y1650000D02*
X1650000D01*
X-1650000Y-1650000D02*
Y1650000D01*
X-1850000Y-1850000D02*
Y1850000D01*
D20*
X-639455Y-508045D02*
X-517500Y-630000D01*
X-639455Y-508045D02*
Y-370545D01*
X-680000Y-330000D02*
X-639455Y-370545D01*
X-125626Y-1214374D02*
Y-1206874D01*
X-130000Y-1202500D02*
Y-1131689D01*
X-125626Y-1214374D02*
X-40000Y-1300000D01*
X-130000Y-1202500D02*
X-125626Y-1206874D01*
X120001Y-750001D02*
X277500Y-907500D01*
X390000D01*
X584769Y-1102269D01*
Y-1185231D02*
Y-1102269D01*
X510000Y-1370000D02*
Y-1260000D01*
X584769Y-1185231D01*
X-320000Y220000D02*
X-60000Y480000D01*
X-900000Y220000D02*
X-320000D01*
X-517500Y-630000D02*
X-77500D01*
X-37500Y-670000D01*
Y-795000D02*
Y-670000D01*
X510000Y-1370000D02*
X580000Y-1440000D01*
X-1160000Y-1140000D02*
Y-1090000D01*
X120001Y-750001D02*
Y-660000D01*
X-1200000Y-1180000D02*
X-1160000Y-1140000D01*
X-1430000Y-1180000D02*
X-1200000D01*
X-37558Y1037441D02*
X0Y1075000D01*
X-60000Y480000D02*
Y1015123D01*
X-37681Y1037441D01*
X-37558D01*
X10000Y-130000D02*
X60000Y-80000D01*
Y900000D01*
X-690000Y1142319D02*
X-647681Y1100000D01*
X-375000D01*
X-425832Y1384168D02*
Y1404168D01*
X-620000Y1190000D02*
X-425832Y1384168D01*
Y1404168D02*
X-420000Y1410000D01*
X-660000Y1272441D02*
Y1280000D01*
X-690000Y1142319D02*
Y1242442D01*
X-660000Y1272441D01*
D21*
X190000Y-1332500D02*
Y-1272670D01*
X21823Y-1026299D02*
X291252Y-1295728D01*
X402500Y-1332500D02*
X410000D01*
X20865Y-1026299D02*
X21823D01*
X20000Y-950000D02*
X402500Y-1332500D01*
X19822Y-1102492D02*
X190000Y-1272670D01*
X-642500Y-102500D02*
X-522500Y-222500D01*
Y-460128D02*
Y-222500D01*
X-1110000Y-102500D02*
X-642500D01*
X-545000Y-495000D02*
Y-482628D01*
X-522500Y-460128D01*
X291252Y-1323752D02*
X300000Y-1332500D01*
X291252Y-1323752D02*
Y-1295728D01*
X280000Y-810000D02*
X350000D01*
X220000Y-750000D02*
Y-550000D01*
Y-750000D02*
X280000Y-810000D01*
X670000Y-1207500D02*
X703340Y-1240840D01*
X617860Y-877255D02*
X670000Y-929395D01*
Y-1207500D02*
Y-929395D01*
X630000Y-1250000D02*
Y-950000D01*
Y-1250000D02*
X650000Y-1270000D01*
X420000Y-740000D02*
X630000Y-950000D01*
X420000Y-740000D02*
Y-480000D01*
X220000Y-550000D02*
X580000Y-190000D01*
X620000Y990000D02*
X630000D01*
X580000Y950000D02*
X620000Y990000D01*
X580000Y-190000D02*
Y950000D01*
X180000Y-310000D02*
X520000Y30000D01*
X178341Y1407500D02*
X520000Y1065841D01*
Y30000D02*
Y1065841D01*
X577155Y-1292361D02*
X585903Y-1301109D01*
X605675D01*
X627906Y-1323340D01*
X530000Y-480000D02*
X617860Y-567860D01*
Y-877255D02*
Y-567860D01*
X540605Y1432500D02*
X563700D01*
X539990Y1379163D02*
Y1390010D01*
X430000Y1500000D02*
X539990Y1390010D01*
X563700Y1432500D02*
X616200Y1380000D01*
X442625Y1530480D02*
X540605Y1432500D01*
X703340Y-1292094D02*
Y-1240840D01*
X-602625Y1530480D02*
X442625D01*
X-800000Y1290000D02*
X-590000Y1500000D01*
X430000D01*
X-612625Y1520480D02*
X-602625Y1530480D01*
X-622625Y1510480D02*
X-612625Y1520480D01*
X-763105Y1370000D02*
X-622625Y1510480D01*
X-1130000Y1370000D02*
X-763105D01*
X672094Y-1323340D02*
X703340Y-1292094D01*
X627906Y-1323340D02*
X672094D01*
D22*
X10000Y-735920D02*
X241580Y-967500D01*
X340000D02*
X492500Y-1120000D01*
X241580Y-967500D02*
X340000D01*
X-600000Y-90000D02*
X-480000Y-210000D01*
X-600000Y-90000D02*
Y30000D01*
X-480000Y-465000D02*
Y-210000D01*
Y-465000D02*
X-365000Y-580000D01*
X-50000D01*
X10000Y-640000D01*
X-782500Y-702500D02*
X-102270D01*
X-897500Y-817500D02*
X-782500Y-702500D01*
X10000Y-735920D02*
Y-640000D01*
X-897500Y-827500D02*
Y-817500D01*
X700000Y920000D02*
X730000Y950000D01*
X700000Y-378205D02*
Y920000D01*
X751795Y-430000D02*
X751891D01*
X820000Y-498109D01*
X700000Y-378205D02*
X751795Y-430000D01*
X750000Y-1390000D02*
Y-810000D01*
Y-1390000D02*
X800000Y-1440000D01*
D23*
X820000Y-740000D02*
Y-498109D01*
X750000Y-810000D02*
X820000Y-740000D01*
D24*
X19822Y-1102492D02*
D03*
X20865Y-1026299D02*
D03*
X350000Y-810000D02*
D03*
X-685000Y57500D02*
D03*
X-1025000Y-295000D02*
D03*
X-815000Y-205000D02*
D03*
X-872500Y-487500D02*
D03*
X-960000D02*
D03*
X-787500D02*
D03*
X262500Y-1085000D02*
D03*
X150000Y-992500D02*
D03*
X-130000Y-1202500D02*
D03*
X-450000Y-1425000D02*
D03*
X-525000D02*
D03*
X-600000D02*
D03*
X-750000Y-1225000D02*
D03*
X-675000D02*
D03*
X-600000D02*
D03*
X-525000D02*
D03*
X-102270Y-702500D02*
D03*
X-545000Y-495000D02*
D03*
X492500Y-1120000D02*
D03*
X-1160000Y-1010089D02*
D03*
X-1110000Y-102500D02*
D03*
X-937500Y-30000D02*
D03*
X872500Y-1112500D02*
D03*
X847500Y-1042500D02*
D03*
X990000Y-950000D02*
D03*
X-897500Y-827500D02*
D03*
X-982500Y-597500D02*
D03*
X730000Y950000D02*
D03*
X380000Y-1100000D02*
D03*
X-560000Y-770000D02*
D03*
X-760000Y-1090000D02*
D03*
X230000Y810000D02*
D03*
X250000Y980000D02*
D03*
X330000Y-520000D02*
D03*
X680000Y-810000D02*
D03*
X862500Y-822500D02*
D03*
X640000Y430000D02*
D03*
Y200000D02*
D03*
Y-70000D02*
D03*
X-805000Y32500D02*
D03*
X130000Y1050000D02*
D03*
X-40000Y350000D02*
D03*
X-260000Y430000D02*
D03*
X-390000Y780000D02*
D03*
X-180000D02*
D03*
X-130000Y1030000D02*
D03*
X-740000Y920000D02*
D03*
X-1150000D02*
D03*
Y1050000D02*
D03*
X-720000Y1030000D02*
D03*
X540000Y1190000D02*
D03*
X160000Y-500000D02*
D03*
X-420000Y-400000D02*
D03*
X-1145000Y17500D02*
D03*
X1150000Y1180000D02*
D03*
X940000Y1160000D02*
D03*
X800000D02*
D03*
X950000Y1030000D02*
D03*
Y-210000D02*
D03*
X820000Y-110000D02*
D03*
X950000Y0D02*
D03*
X820000Y150000D02*
D03*
X940000Y250000D02*
D03*
X820000Y370000D02*
D03*
X430000D02*
D03*
Y150000D02*
D03*
X270000Y-100000D02*
D03*
X150000Y-200000D02*
D03*
Y-40000D02*
D03*
Y150000D02*
D03*
X310000Y260000D02*
D03*
X150000Y370000D02*
D03*
X310000Y480000D02*
D03*
X150000Y590000D02*
D03*
X-982500Y-682500D02*
D03*
X-1040000Y-1020000D02*
D03*
X-1160000Y-1090000D02*
D03*
X1400000Y-1450000D02*
D03*
X1110000Y-950000D02*
D03*
X1160000Y-1160000D02*
D03*
X1070000D02*
D03*
X-40000Y-1300000D02*
D03*
X630000Y990000D02*
D03*
X800000Y-1440000D02*
D03*
X577155Y-1292361D02*
D03*
X650000Y-1270000D02*
D03*
X580000Y-1440000D02*
D03*
X180000Y-310000D02*
D03*
X530000Y-480000D02*
D03*
X420000D02*
D03*
X539990Y1379163D02*
D03*
X-325000Y-1008812D02*
D03*
X-412500Y-1095000D02*
D03*
X-237500D02*
D03*
X-240000Y-922500D02*
D03*
X-407500Y-927500D02*
D03*
X178341Y1407500D02*
D03*
X-1130000Y1370000D02*
D03*
X616200Y1380000D02*
D03*
X-800000Y1290000D02*
D03*
X915000Y-1929520D02*
D03*
X1525000Y-1575000D02*
D03*
X20000Y-950000D02*
D03*
X190000Y-1332500D02*
D03*
X300000Y-1332500D02*
D03*
X410000Y-1332500D02*
D03*
D25*
X-37500Y-795000D02*
D03*
X-900000Y220000D02*
D03*
X-600000Y30000D02*
D03*
X60000Y900000D02*
D03*
X-375000Y1100000D02*
D03*
X-420000Y1410000D02*
D03*
X0Y1075000D02*
D03*
X10000Y-130000D02*
D03*
X-660000Y1280000D02*
D03*
X-620000Y1190000D02*
D03*
M02*
