G04*
G04 #@! TF.GenerationSoftware,Altium Limited,Altium Designer,26.5.1 (12)*
G04*
G04 Layer_Color=32896*
G04 Board_Origin=121479484|76924161*
%FSLAX45Y45*%
%MOMM*%
G71*
G04*
G04 #@! TF.SameCoordinates,70F601D8-87FB-4B92-8B9A-2FBC50858502*
G04*
G04*
G04 #@! TF.FilePolarity,Positive*
G04*
G01*
G75*
%ADD10C,0.25400*%
%ADD11C,0.50000*%
%ADD19C,0.25000*%
%ADD21C,0.15240*%
%ADD22C,0.20320*%
%ADD54C,0.60000*%
%ADD55C,0.10000*%
%ADD56C,0.20000*%
%ADD57C,0.15000*%
%ADD58R,0.57500X0.85000*%
%ADD59R,1.70000X0.97200*%
G36*
X1282203Y1387308D02*
X1284240Y1384346D01*
X1286647Y1381383D01*
X1288869Y1378791D01*
X1291091Y1376569D01*
X1292757Y1374717D01*
X1293498Y1374162D01*
X1294054Y1373606D01*
X1294239Y1373421D01*
X1294424Y1373236D01*
X1298312Y1370088D01*
X1302201Y1367125D01*
X1305904Y1364533D01*
X1309607Y1362496D01*
X1312755Y1360644D01*
X1314051Y1359904D01*
X1315162Y1359348D01*
X1316088Y1358793D01*
X1316829Y1358608D01*
X1317199Y1358237D01*
X1317384D01*
Y1343054D01*
X1314607Y1344165D01*
X1311829Y1345461D01*
X1309052Y1346757D01*
X1306460Y1348053D01*
X1304238Y1349164D01*
X1302386Y1350090D01*
X1301275Y1350831D01*
X1301090Y1351016D01*
X1300905D01*
X1297572Y1353053D01*
X1294609Y1355089D01*
X1292017Y1356941D01*
X1289980Y1358608D01*
X1288128Y1359904D01*
X1287017Y1361015D01*
X1286091Y1361755D01*
X1285906Y1361941D01*
Y1261766D01*
X1270167D01*
Y1390456D01*
X1280351D01*
X1282203Y1387308D01*
D02*
G37*
G36*
X1177214Y1322315D02*
X1162401Y1320278D01*
X1161104Y1322315D01*
X1159438Y1323982D01*
X1157957Y1325648D01*
X1156475Y1326944D01*
X1154994Y1327870D01*
X1153883Y1328796D01*
X1153142Y1329166D01*
X1152957Y1329351D01*
X1150550Y1330462D01*
X1148143Y1331388D01*
X1145921Y1331944D01*
X1143699Y1332499D01*
X1141847Y1332684D01*
X1140366Y1332870D01*
X1136848D01*
X1134626Y1332499D01*
X1130737Y1331573D01*
X1127404Y1330277D01*
X1124441Y1328981D01*
X1122219Y1327500D01*
X1120553Y1326204D01*
X1119627Y1325278D01*
X1119257Y1325093D01*
Y1324907D01*
X1116665Y1321760D01*
X1114813Y1318427D01*
X1113517Y1314908D01*
X1112591Y1311390D01*
X1112035Y1308428D01*
X1111850Y1307131D01*
Y1306021D01*
X1111665Y1305095D01*
Y1304354D01*
Y1303984D01*
Y1303799D01*
Y1301206D01*
X1112035Y1298799D01*
X1112961Y1294170D01*
X1114257Y1290281D01*
X1115554Y1287134D01*
X1117035Y1284541D01*
X1118331Y1282504D01*
X1118887Y1281949D01*
X1119257Y1281393D01*
X1119442Y1281208D01*
X1119627Y1281023D01*
X1121109Y1279542D01*
X1122590Y1278246D01*
X1125923Y1276024D01*
X1129071Y1274542D01*
X1132218Y1273616D01*
X1134811Y1272876D01*
X1137033Y1272691D01*
X1137773Y1272505D01*
X1138884D01*
X1142403Y1272691D01*
X1145550Y1273431D01*
X1148328Y1274357D01*
X1150550Y1275468D01*
X1152587Y1276579D01*
X1154068Y1277505D01*
X1154809Y1278246D01*
X1155179Y1278431D01*
X1157401Y1281023D01*
X1159253Y1283801D01*
X1160734Y1286948D01*
X1161845Y1289726D01*
X1162586Y1292503D01*
X1163141Y1294540D01*
X1163326Y1295466D01*
X1163512Y1296022D01*
Y1296392D01*
Y1296577D01*
X1179991Y1295281D01*
X1179621Y1292318D01*
X1179065Y1289541D01*
X1177399Y1284356D01*
X1175362Y1279912D01*
X1174251Y1277875D01*
X1173140Y1276209D01*
X1172214Y1274542D01*
X1171103Y1273061D01*
X1170177Y1271950D01*
X1169252Y1271024D01*
X1168511Y1270283D01*
X1168141Y1269543D01*
X1167770Y1269358D01*
X1167585Y1269172D01*
X1165363Y1267506D01*
X1163141Y1266025D01*
X1160734Y1264728D01*
X1158327Y1263617D01*
X1153698Y1261951D01*
X1149069Y1260840D01*
X1147032Y1260285D01*
X1144995Y1260099D01*
X1143328Y1259914D01*
X1141847Y1259729D01*
X1140551Y1259544D01*
X1138884D01*
X1134996Y1259729D01*
X1131293Y1260285D01*
X1127774Y1261025D01*
X1124627Y1261951D01*
X1121664Y1263247D01*
X1118887Y1264543D01*
X1116294Y1265839D01*
X1114072Y1267321D01*
X1112035Y1268802D01*
X1110184Y1270098D01*
X1108702Y1271580D01*
X1107406Y1272691D01*
X1106480Y1273616D01*
X1105740Y1274357D01*
X1105369Y1274913D01*
X1105184Y1275098D01*
X1103333Y1277505D01*
X1101851Y1280097D01*
X1100370Y1282504D01*
X1099259Y1285097D01*
X1097407Y1290096D01*
X1096296Y1294911D01*
X1095926Y1296947D01*
X1095556Y1298984D01*
X1095370Y1300651D01*
X1095185Y1302132D01*
X1095000Y1303428D01*
Y1304354D01*
Y1304910D01*
Y1305095D01*
X1095185Y1308428D01*
X1095556Y1311575D01*
X1096111Y1314723D01*
X1096852Y1317501D01*
X1097778Y1320093D01*
X1098703Y1322685D01*
X1099814Y1324907D01*
X1100740Y1326944D01*
X1101851Y1328796D01*
X1102962Y1330462D01*
X1103888Y1331759D01*
X1104814Y1333055D01*
X1105555Y1333981D01*
X1106110Y1334536D01*
X1106480Y1334906D01*
X1106666Y1335092D01*
X1108888Y1337128D01*
X1111110Y1338980D01*
X1113517Y1340461D01*
X1115924Y1341758D01*
X1118331Y1343054D01*
X1120738Y1343980D01*
X1125182Y1345276D01*
X1127219Y1345831D01*
X1129071Y1346202D01*
X1130737Y1346387D01*
X1132218Y1346572D01*
X1133329Y1346757D01*
X1137403D01*
X1139625Y1346387D01*
X1144069Y1345461D01*
X1148143Y1344165D01*
X1151846Y1342683D01*
X1154809Y1341202D01*
X1156105Y1340461D01*
X1157216Y1339906D01*
X1158142Y1339350D01*
X1158697Y1338980D01*
X1159068Y1338795D01*
X1159253Y1338610D01*
X1152402Y1373236D01*
X1101111D01*
Y1388234D01*
X1164808D01*
X1177214Y1322315D01*
D02*
G37*
G36*
X1389414Y1261766D02*
X1374416D01*
X1339049Y1354719D01*
X1355343D01*
X1375897Y1297873D01*
X1377193Y1294170D01*
X1378489Y1290837D01*
X1379415Y1287689D01*
X1380341Y1285282D01*
X1380896Y1283060D01*
X1381452Y1281579D01*
X1381637Y1280653D01*
X1381822Y1280282D01*
X1382933Y1283801D01*
X1383859Y1287319D01*
X1384970Y1290467D01*
X1385896Y1293244D01*
X1386637Y1295651D01*
X1387192Y1297503D01*
X1387377Y1298058D01*
X1387562Y1298614D01*
X1387748Y1298799D01*
Y1298984D01*
X1407745Y1354719D01*
X1424410D01*
X1389414Y1261766D01*
D02*
G37*
G36*
X1220913D02*
X1202952D01*
Y1279727D01*
X1220913D01*
Y1261766D01*
D02*
G37*
D10*
X570000Y-330000D02*
G03*
X570000Y-330000I-1000000J0D01*
G01*
X-1865000Y-550000D02*
G03*
X-1015000Y-550000I425000J0D01*
G01*
Y650000D02*
G03*
X-1865000Y650000I-425000J0D01*
G01*
X-1540000Y-800000D02*
X-1340000D01*
X-1440000Y-900000D02*
Y-700000D01*
X-1865000Y-550000D02*
Y650000D01*
X-1015000Y-550000D02*
Y650000D01*
X-1500000Y-1650000D02*
X-1360000D01*
X-1430000Y-1720000D02*
Y-1580000D01*
X-1190000Y-580000D02*
Y-440000D01*
X-1260000Y-510000D02*
X-1120000D01*
D11*
X-20000Y-750000D02*
Y-570000D01*
D19*
X1527500Y-1115000D02*
G03*
X1527500Y-1115000I-12500J0D01*
G01*
X-800808Y-151251D02*
G03*
X-800808Y-151251I-12500J0D01*
G01*
X-14393Y-883812D02*
G03*
X-14393Y-883812I-12500J0D01*
G01*
X-257500Y260000D02*
G03*
X-257500Y260000I-12500J0D01*
G01*
X-1115830Y1037900D02*
G03*
X-1115830Y1037900I-12500J0D01*
G01*
X-562500Y1428800D02*
G03*
X-562500Y1428800I-12500J0D01*
G01*
D21*
X-1272500Y-890000D02*
G03*
X-1272500Y-890000I-127500J0D01*
G01*
X200994Y-380000D02*
X251761D01*
X200961Y640000D02*
X245561D01*
X200428Y-381867D02*
Y639900D01*
X1077794Y-380000D02*
X1630428D01*
Y635000D01*
X1072194D02*
X1630428D01*
X-700000Y1500000D02*
X-612500D01*
X-700000D02*
Y1730000D01*
X612500Y1500000D02*
X700000D01*
Y1730000D01*
X-630000Y1835000D02*
X630000D01*
X-730000Y-130000D02*
X-630000D01*
X-680000Y-180000D02*
Y-80000D01*
X57500Y657500D02*
Y962500D01*
Y657500D02*
X242500D01*
Y962500D01*
X57500D02*
X242500D01*
X-642500Y502500D02*
X-337500D01*
X-642500Y317500D02*
Y502500D01*
Y317500D02*
X-337500D01*
Y502500D01*
X-1082500Y-747500D02*
X-777500D01*
X-1082500Y-932500D02*
Y-747500D01*
Y-932500D02*
X-777500D01*
Y-747500D01*
X-1062499Y-729999D02*
X-912498D01*
X-1062499Y-554999D02*
X-912498D01*
X-530000Y-347500D02*
Y-42500D01*
Y-347500D02*
X-345000D01*
Y-42500D01*
X-530000D02*
X-345000D01*
X-1097500Y-1462500D02*
Y-1157500D01*
X-1282500D02*
X-1097500D01*
X-1282500Y-1462500D02*
Y-1157500D01*
Y-1462500D02*
X-1097500D01*
D22*
X450000Y-1035000D02*
Y-950000D01*
X290000D02*
X450000D01*
X290000Y-1035000D02*
Y-950000D01*
Y-1035000D02*
X450000D01*
X-630000Y127500D02*
Y212500D01*
X-790000D02*
X-630000D01*
X-790000Y127500D02*
Y212500D01*
Y127500D02*
X-630000D01*
X-695000Y597500D02*
X-525000D01*
Y879700D01*
X-695000D02*
X-525000D01*
X-695000Y597500D02*
Y879700D01*
X-265000Y597500D02*
X-95000D01*
Y879700D01*
X-265000D02*
X-95000D01*
X-265000Y597500D02*
Y879700D01*
X-475000Y882500D02*
X-305000D01*
X-475000Y600300D02*
Y882500D01*
Y600300D02*
X-305000D01*
Y882500D01*
D54*
X1332500Y-1240000D02*
G03*
X1332500Y-1240000I-30000J0D01*
G01*
D55*
X280000Y-1042500D02*
G03*
X280000Y-1042500I-5000J0D01*
G01*
X-800000Y120000D02*
G03*
X-800000Y120000I-5000J0D01*
G01*
X710000Y-1050000D02*
Y-875000D01*
X615000D02*
X710000D01*
X615000Y-1050000D02*
Y-875000D01*
Y-1050000D02*
X710000D01*
X-777500Y-642500D02*
X-602500D01*
X-777500Y-737500D02*
Y-642500D01*
Y-737500D02*
X-602500D01*
Y-642500D01*
X-797500Y217500D02*
X-622500D01*
X-797500Y122500D02*
Y217500D01*
Y122500D02*
X-622500D01*
Y217500D01*
X602500Y-1392500D02*
X777500D01*
X602500Y-1487500D02*
Y-1392500D01*
Y-1487500D02*
X777500D01*
Y-1392500D01*
X702500Y752500D02*
Y927500D01*
Y752500D02*
X797500D01*
Y927500D01*
X702500D02*
X797500D01*
X502500Y-1257500D02*
Y-1082500D01*
Y-1257500D02*
X597500D01*
Y-1082500D01*
X502500D02*
X597500D01*
X602500Y-1257500D02*
Y-1082500D01*
Y-1257500D02*
X697500D01*
Y-1082500D01*
X602500D02*
X697500D01*
X-594375Y-675709D02*
Y-500709D01*
Y-675709D02*
X-499375D01*
Y-500709D01*
X-594375D02*
X-499375D01*
X-1214998Y-417502D02*
X-1039998D01*
X-1214998Y-512502D02*
Y-417502D01*
Y-512502D02*
X-1039998D01*
Y-417502D01*
X82500Y-437500D02*
Y-262500D01*
Y-437500D02*
X177500D01*
Y-262500D01*
X82500D02*
X177500D01*
X482500Y752500D02*
Y927500D01*
Y752500D02*
X577500D01*
Y927500D01*
X482500D02*
X577500D01*
X592500Y752500D02*
Y927500D01*
Y752500D02*
X687500D01*
Y927500D01*
X592500D02*
X687500D01*
X382500Y-857500D02*
X557500D01*
Y-762500D01*
X382500D02*
X557500D01*
X382500Y-857500D02*
Y-762500D01*
X-82500Y122500D02*
Y297500D01*
X-177500D02*
X-82500D01*
X-177500Y122500D02*
Y297500D01*
Y122500D02*
X-82500D01*
X812500Y752500D02*
Y927500D01*
Y752500D02*
X907500D01*
Y927500D01*
X812500D02*
X907500D01*
X922500Y752500D02*
Y927500D01*
Y752500D02*
X1017500D01*
Y927500D01*
X922500D02*
X1017500D01*
X-177500Y-57500D02*
Y117500D01*
Y-57500D02*
X-82500D01*
Y117500D01*
X-177500D02*
X-82500D01*
X-987500Y1242500D02*
X-812500D01*
Y1337500D01*
X-987500D02*
X-812500D01*
X-987500Y1242500D02*
Y1337500D01*
X-1167500D02*
X-992500D01*
X-1167500Y1242500D02*
Y1337500D01*
Y1242500D02*
X-992500D01*
Y1337500D01*
X237500Y-1510000D02*
Y-1335000D01*
X142500D02*
X237500D01*
X142500Y-1510000D02*
Y-1335000D01*
Y-1510000D02*
X237500D01*
X347500Y-1510000D02*
Y-1335000D01*
X252500D02*
X347500D01*
X252500Y-1510000D02*
Y-1335000D01*
Y-1510000D02*
X347500D01*
X-87500Y-1507500D02*
Y-1332500D01*
Y-1507500D02*
X7500D01*
Y-1332500D01*
X-87500D02*
X7500D01*
X457500Y-1510000D02*
Y-1335000D01*
X362500D02*
X457500D01*
X362500Y-1510000D02*
Y-1335000D01*
Y-1510000D02*
X457500D01*
X127500D02*
Y-1335000D01*
X32500D02*
X127500D01*
X32500Y-1510000D02*
Y-1335000D01*
Y-1510000D02*
X127500D01*
X-199585Y-675591D02*
Y-500592D01*
X-294585D02*
X-199585D01*
X-294585Y-675591D02*
Y-500592D01*
Y-675591D02*
X-199585D01*
X-99585D02*
Y-500592D01*
X-194585D02*
X-99585D01*
X-194585Y-675591D02*
Y-500592D01*
Y-675591D02*
X-99585D01*
X237500Y-1330000D02*
Y-1155000D01*
X142500D02*
X237500D01*
X142500Y-1330000D02*
Y-1155000D01*
Y-1330000D02*
X237500D01*
X347500Y-1330000D02*
Y-1155000D01*
X252500D02*
X347500D01*
X252500Y-1330000D02*
Y-1155000D01*
Y-1330000D02*
X347500D01*
X127500D02*
Y-1155000D01*
X32500D02*
X127500D01*
X32500Y-1330000D02*
Y-1155000D01*
Y-1330000D02*
X127500D01*
X457500Y-1330000D02*
Y-1155000D01*
X362500D02*
X457500D01*
X362500Y-1330000D02*
Y-1155000D01*
Y-1330000D02*
X457500D01*
X-494585Y-675591D02*
Y-500592D01*
Y-675591D02*
X-399585D01*
Y-500592D01*
X-494585D02*
X-399585D01*
X-394585Y-675591D02*
Y-500592D01*
Y-675591D02*
X-299585D01*
Y-500592D01*
X-394585D02*
X-299585D01*
X-395000Y-1482500D02*
X-220000D01*
Y-1387500D01*
X-395000D02*
X-220000D01*
X-395000Y-1482500D02*
Y-1387500D01*
X-395289Y-1290708D02*
X-220289D01*
X-395289Y-1385708D02*
Y-1290708D01*
Y-1385708D02*
X-220289D01*
Y-1290708D01*
X507500Y-1050000D02*
X602500D01*
X507500D02*
Y-875000D01*
X602500D01*
Y-1050000D02*
Y-875000D01*
X722500D02*
X817500D01*
Y-1050000D02*
Y-875000D01*
X722500Y-1050000D02*
X817500D01*
X722500D02*
Y-875000D01*
X457500Y752500D02*
Y847500D01*
X282500Y752500D02*
X457500D01*
X282500D02*
Y847500D01*
X457500D01*
X-560000Y1377500D02*
X-420000D01*
Y1122500D02*
Y1377500D01*
X-560000Y1122500D02*
X-420000D01*
X-560000D02*
Y1377500D01*
X-947500Y177500D02*
X-852500D01*
Y2500D02*
Y177500D01*
X-947500Y2500D02*
X-852500D01*
X-947500D02*
Y177500D01*
X1245000Y-1570000D02*
Y-1475000D01*
X1070000Y-1570000D02*
X1245000D01*
X1070000D02*
Y-1475000D01*
X1245000D01*
X1260000Y-1570000D02*
Y-1475000D01*
X1435000D01*
Y-1570000D02*
Y-1475000D01*
X1260000Y-1570000D02*
X1435000D01*
X722500Y-1232500D02*
X817500D01*
X722500D02*
Y-1057501D01*
X817500D01*
Y-1232500D02*
Y-1057501D01*
X-427500Y960000D02*
Y1100000D01*
X-172500D01*
Y960000D02*
Y1100000D01*
X-427500Y960000D02*
X-172500D01*
X-1110000Y217500D02*
X-970000D01*
Y-37500D02*
Y217500D01*
X-1110000Y-37500D02*
X-970000D01*
X-1110000D02*
Y217500D01*
X-657500Y992500D02*
Y1087500D01*
X-482500D01*
Y992500D02*
Y1087500D01*
X-657500Y992500D02*
X-482500D01*
X-679647Y1378924D02*
Y1473924D01*
X-854646Y1378924D02*
X-679647D01*
X-854646D02*
Y1473924D01*
X-679647D01*
X-377500Y1362500D02*
X-282500D01*
Y1187500D02*
Y1362500D01*
X-377500Y1187500D02*
X-282500D01*
X-377500D02*
Y1362500D01*
X-280000D02*
X-185000D01*
Y1187500D02*
Y1362500D01*
X-280000Y1187500D02*
X-185000D01*
X-280000D02*
Y1362500D01*
X-137500Y1357500D02*
X-42500D01*
Y1182500D02*
Y1357500D01*
X-137500Y1182500D02*
X-42500D01*
X-137500D02*
Y1357500D01*
X312500Y1395000D02*
X407500D01*
Y1220000D02*
Y1395000D01*
X312500Y1220000D02*
X407500D01*
X312500D02*
Y1395000D01*
X412500Y1382500D02*
X507500D01*
Y1207500D02*
Y1382500D01*
X412500Y1207500D02*
X507500D01*
X412500D02*
Y1382500D01*
X-217500Y-1282500D02*
X-122500D01*
Y-1457500D02*
Y-1282500D01*
X-217500Y-1457500D02*
X-122500D01*
X-217500D02*
Y-1282500D01*
X-785223Y-1060987D02*
Y-965987D01*
X-960223Y-1060987D02*
X-785223D01*
X-960223D02*
Y-965987D01*
X-785223D01*
D56*
X1402500Y-1440000D02*
Y-1140000D01*
X1042500Y-1440000D02*
Y-1140000D01*
X1402500D01*
X1042500Y-1440000D02*
X1402500D01*
X-1098308Y-93751D02*
X-1008308D01*
X-1098308Y-398751D02*
X-1008308D01*
X-525000Y-1208812D02*
X-500000D01*
X-525000D02*
Y-1183812D01*
Y-808812D02*
X-500000D01*
X-525000Y-833812D02*
Y-808812D01*
X-150000Y-1208812D02*
X-124999D01*
Y-1183812D01*
X-150000Y-808812D02*
X-124999D01*
Y-833812D02*
Y-808812D01*
X-430000Y-70000D02*
Y10000D01*
Y-70000D02*
X-370000D01*
X-430000Y150000D02*
Y230000D01*
X-370000D01*
X-878330Y877900D02*
X-798330D01*
Y937900D01*
X-1098330Y877900D02*
X-1018330D01*
X-1098330D02*
Y937900D01*
X-1160000Y447500D02*
Y532500D01*
X-740000Y447500D02*
Y532500D01*
X-815000Y-1327500D02*
Y-1272500D01*
X-1085000Y-1327500D02*
Y-1272500D01*
X-1303001Y-1561000D02*
Y-1053000D01*
X-1557000Y-1561000D02*
X-1303001D01*
X-1557000D02*
X-1557000Y-1053000D01*
X-1303001Y-1053000D01*
X1020000Y-770000D02*
X1020001Y-550000D01*
X20000Y-550000D02*
X1020001Y-550000D01*
X20000Y-770000D02*
X1020000Y-770000D01*
X20000Y-770000D02*
Y-550000D01*
D57*
X-1354988Y-207520D02*
X-1292508D01*
X-1280012Y-220016D01*
Y-245008D01*
X-1292508Y-257504D01*
X-1354988D01*
X-1280012Y-332480D02*
Y-282496D01*
X-1329996Y-332480D01*
X-1342492D01*
X-1354988Y-319984D01*
Y-294992D01*
X-1342492Y-282496D01*
X837512Y-1004968D02*
X912488D01*
Y-967480D01*
X899992Y-954984D01*
X875000D01*
X862504Y-967480D01*
Y-1004968D01*
Y-979976D02*
X837512Y-954984D01*
X899992Y-929992D02*
X912488Y-917496D01*
Y-892504D01*
X899992Y-880008D01*
X887496D01*
X875000Y-892504D01*
Y-905000D01*
Y-892504D01*
X862504Y-880008D01*
X850008D01*
X837512Y-892504D01*
Y-917496D01*
X850008Y-929992D01*
X837512Y-817528D02*
X912488D01*
X875000Y-855016D01*
Y-805032D01*
X-749968Y-757512D02*
Y-832488D01*
X-712480D01*
X-699984Y-819992D01*
Y-795000D01*
X-712480Y-782504D01*
X-749968D01*
X-724975D02*
X-699984Y-757512D01*
X-674992Y-819992D02*
X-662495Y-832488D01*
X-637504D01*
X-625008Y-819992D01*
Y-807496D01*
X-637504Y-795000D01*
X-649999D01*
X-637504D01*
X-625008Y-782504D01*
Y-770008D01*
X-637504Y-757512D01*
X-662495D01*
X-674992Y-770008D01*
X-600016Y-819992D02*
X-587520Y-832488D01*
X-562528D01*
X-550032Y-819992D01*
Y-807496D01*
X-562528Y-795000D01*
X-575023D01*
X-562528D01*
X-550032Y-782504D01*
Y-770008D01*
X-562528Y-757512D01*
X-587520D01*
X-600016Y-770008D01*
X229980Y-902512D02*
Y-977488D01*
X192492D01*
X179996Y-964992D01*
Y-915008D01*
X192492Y-902512D01*
X229980D01*
X105020D02*
X155004D01*
Y-940000D01*
X130012Y-927504D01*
X117516D01*
X105020Y-940000D01*
Y-964992D01*
X117516Y-977488D01*
X142508D01*
X155004Y-964992D01*
X704984Y-795008D02*
X717480Y-782512D01*
X742472D01*
X754968Y-795008D01*
Y-844992D01*
X742472Y-857488D01*
X717480D01*
X704984Y-844992D01*
X630008Y-857488D02*
X679992D01*
X630008Y-807504D01*
Y-795008D01*
X642504Y-782512D01*
X667496D01*
X679992Y-795008D01*
X605016Y-782512D02*
X555032D01*
Y-795008D01*
X605016Y-844992D01*
Y-857488D01*
X-595032Y235012D02*
Y309988D01*
X-632520D01*
X-645016Y297492D01*
Y272500D01*
X-632520Y260004D01*
X-595032D01*
X-620024D02*
X-645016Y235012D01*
X-670008Y297492D02*
X-682504Y309988D01*
X-707496D01*
X-719992Y297492D01*
Y284996D01*
X-707496Y272500D01*
X-695000D01*
X-707496D01*
X-719992Y260004D01*
Y247508D01*
X-707496Y235012D01*
X-682504D01*
X-670008Y247508D01*
X-794968Y235012D02*
X-744984D01*
X-794968Y284996D01*
Y297492D01*
X-782472Y309988D01*
X-757480D01*
X-744984Y297492D01*
X-739980Y30012D02*
Y104988D01*
X-702493D01*
X-689997Y92492D01*
Y42508D01*
X-702493Y30012D01*
X-739980D01*
X-627517Y104988D02*
Y30012D01*
X-665005Y67500D01*
X-615021D01*
X-1544992Y-190016D02*
X-1557488Y-177520D01*
Y-152528D01*
X-1544992Y-140032D01*
X-1495008D01*
X-1482512Y-152528D01*
Y-177520D01*
X-1495008Y-190016D01*
X-1482512Y-264992D02*
Y-215008D01*
X-1532496Y-264992D01*
X-1544992D01*
X-1557488Y-252496D01*
Y-227504D01*
X-1544992Y-215008D01*
X-1557488Y-339968D02*
X-1544992Y-314976D01*
X-1520000Y-289984D01*
X-1495008D01*
X-1482512Y-302480D01*
Y-327472D01*
X-1495008Y-339968D01*
X-1507504D01*
X-1520000Y-327472D01*
Y-289984D01*
X605028Y-1515012D02*
Y-1589988D01*
X642516D01*
X655012Y-1577492D01*
Y-1552500D01*
X642516Y-1540004D01*
X605028D01*
X630020D02*
X655012Y-1515012D01*
X680004Y-1577492D02*
X692500Y-1589988D01*
X717492D01*
X729988Y-1577492D01*
Y-1564996D01*
X717492Y-1552500D01*
X704996D01*
X717492D01*
X729988Y-1540004D01*
Y-1527508D01*
X717492Y-1515012D01*
X692500D01*
X680004Y-1527508D01*
X754980Y-1515012D02*
X779972D01*
X767476D01*
Y-1589988D01*
X754980Y-1577492D01*
X962508Y-852516D02*
X950012Y-840020D01*
Y-815028D01*
X962508Y-802532D01*
X1012492D01*
X1024988Y-815028D01*
Y-840020D01*
X1012492Y-852516D01*
X1024988Y-927492D02*
Y-877508D01*
X975004Y-927492D01*
X962508D01*
X950012Y-914996D01*
Y-890004D01*
X962508Y-877508D01*
X950012Y-1002468D02*
Y-952484D01*
X987500D01*
X975004Y-977476D01*
Y-989972D01*
X987500Y-1002468D01*
X1012492D01*
X1024988Y-989972D01*
Y-964980D01*
X1012492Y-952484D01*
X404992Y922516D02*
X417488Y910020D01*
Y885028D01*
X404992Y872532D01*
X355008D01*
X342512Y885028D01*
Y910020D01*
X355008Y922516D01*
X342512Y997492D02*
Y947508D01*
X392496Y997492D01*
X404992D01*
X417488Y984996D01*
Y960004D01*
X404992Y947508D01*
X342512Y1059972D02*
X417488D01*
X380000Y1022484D01*
Y1072468D01*
X224984Y1057492D02*
X237480Y1069988D01*
X262472D01*
X274968Y1057492D01*
Y1007508D01*
X262472Y995012D01*
X237480D01*
X224984Y1007508D01*
X150008Y995012D02*
X199992D01*
X150008Y1044996D01*
Y1057492D01*
X162504Y1069988D01*
X187496D01*
X199992Y1057492D01*
X125016D02*
X112520Y1069988D01*
X87528D01*
X75032Y1057492D01*
Y1044996D01*
X87528Y1032500D01*
X100024D01*
X87528D01*
X75032Y1020004D01*
Y1007508D01*
X87528Y995012D01*
X112520D01*
X125016Y1007508D01*
X-642492Y1307484D02*
X-654988Y1319980D01*
Y1344972D01*
X-642492Y1357468D01*
X-592508D01*
X-580012Y1344972D01*
Y1319980D01*
X-592508Y1307484D01*
X-580012Y1232508D02*
Y1282492D01*
X-629996Y1232508D01*
X-642492D01*
X-654988Y1245004D01*
Y1269996D01*
X-642492Y1282492D01*
X-580012Y1157532D02*
Y1207516D01*
X-629996Y1157532D01*
X-642492D01*
X-654988Y1170028D01*
Y1195020D01*
X-642492Y1207516D01*
X-887489Y-79992D02*
X-899985Y-92488D01*
X-924977D01*
X-937473Y-79992D01*
Y-30008D01*
X-924977Y-17512D01*
X-899985D01*
X-887489Y-30008D01*
X-812513Y-17512D02*
X-862497D01*
X-812513Y-67496D01*
Y-79992D01*
X-825009Y-92488D01*
X-850001D01*
X-862497Y-79992D01*
X-787521Y-17512D02*
X-762529D01*
X-775025D01*
Y-92488D01*
X-787521Y-79992D01*
X-1754828Y1118016D02*
Y1135688D01*
X-1737156Y1153360D01*
X-1719484D01*
X-1684140Y1118016D01*
Y1100344D01*
X-1701812Y1082672D01*
X-1719484D01*
X-1763664Y1020820D02*
X-1728320Y1056164D01*
X-1799008D01*
X-1807844Y1065000D01*
Y1082672D01*
X-1790172Y1100344D01*
X-1772500D01*
X-1825516Y1047328D02*
X-1843188D01*
X-1860860Y1029656D01*
Y1011984D01*
X-1825516Y976640D01*
X-1807844D01*
X-1790172Y994312D01*
Y1011984D01*
X-1825516Y1047328D01*
X787488Y1169968D02*
X712512D01*
Y1132480D01*
X725008Y1119984D01*
X750000D01*
X762496Y1132480D01*
Y1169968D01*
Y1144976D02*
X787488Y1119984D01*
X725008Y1094992D02*
X712512Y1082496D01*
Y1057504D01*
X725008Y1045008D01*
X737504D01*
X750000Y1057504D01*
Y1070000D01*
Y1057504D01*
X762496Y1045008D01*
X774992D01*
X787488Y1057504D01*
Y1082496D01*
X774992Y1094992D01*
X725008Y1020016D02*
X712512Y1007520D01*
Y982528D01*
X725008Y970032D01*
X774992D01*
X787488Y982528D01*
Y1007520D01*
X774992Y1020016D01*
X725008D01*
X-1375011Y-380034D02*
X-1449987D01*
Y-417522D01*
X-1437491Y-430018D01*
X-1412499D01*
X-1400003Y-417522D01*
Y-380034D01*
Y-405026D02*
X-1375011Y-430018D01*
Y-504994D02*
Y-455010D01*
X-1424995Y-504994D01*
X-1437491D01*
X-1449987Y-492498D01*
Y-467506D01*
X-1437491Y-455010D01*
X-1449987Y-579970D02*
X-1437491Y-554978D01*
X-1412499Y-529986D01*
X-1387507D01*
X-1375011Y-542482D01*
Y-567474D01*
X-1387507Y-579970D01*
X-1400003D01*
X-1412499Y-567474D01*
Y-529986D01*
X1093764Y-1662492D02*
X1081268Y-1674988D01*
X1056276D01*
X1043780Y-1662492D01*
Y-1612508D01*
X1056276Y-1600012D01*
X1081268D01*
X1093764Y-1612508D01*
X1118756Y-1600012D02*
X1143748D01*
X1131252D01*
Y-1674988D01*
X1118756Y-1662492D01*
X1181236Y-1612508D02*
X1193732Y-1600012D01*
X1218724D01*
X1231220Y-1612508D01*
Y-1662492D01*
X1218724Y-1674988D01*
X1193732D01*
X1181236Y-1662492D01*
Y-1649996D01*
X1193732Y-1637500D01*
X1231220D01*
X1345405Y-1654992D02*
X1332909Y-1667488D01*
X1307918D01*
X1295422Y-1654992D01*
Y-1605008D01*
X1307918Y-1592512D01*
X1332909D01*
X1345405Y-1605008D01*
X1370398Y-1592512D02*
X1395390D01*
X1382894D01*
Y-1667488D01*
X1370398Y-1654992D01*
X1432878D02*
X1445374Y-1667488D01*
X1470365D01*
X1482861Y-1654992D01*
Y-1642496D01*
X1470365Y-1630000D01*
X1482861Y-1617504D01*
Y-1605008D01*
X1470365Y-1592512D01*
X1445374D01*
X1432878Y-1605008D01*
Y-1617504D01*
X1445374Y-1630000D01*
X1432878Y-1642496D01*
Y-1654992D01*
X1445374Y-1630000D02*
X1470365D01*
X-679988Y-902516D02*
X-617508D01*
X-605012Y-915012D01*
Y-940004D01*
X-617508Y-952500D01*
X-679988D01*
X-605012Y-977492D02*
Y-1002484D01*
Y-989988D01*
X-679988D01*
X-667492Y-977492D01*
X234988Y-1546280D02*
X160012D01*
Y-1583768D01*
X172508Y-1596264D01*
X197500D01*
X209996Y-1583768D01*
Y-1546280D01*
Y-1571272D02*
X234988Y-1596264D01*
Y-1621256D02*
Y-1646248D01*
Y-1633752D01*
X160012D01*
X172508Y-1621256D01*
X160012Y-1733720D02*
Y-1683736D01*
X197500D01*
X185004Y-1708728D01*
Y-1721224D01*
X197500Y-1733720D01*
X222492D01*
X234988Y-1721224D01*
Y-1696232D01*
X222492Y-1683736D01*
X339988Y-1546280D02*
X265012D01*
Y-1583768D01*
X277508Y-1596264D01*
X302500D01*
X314996Y-1583768D01*
Y-1546280D01*
Y-1571272D02*
X339988Y-1596264D01*
Y-1621256D02*
Y-1646248D01*
Y-1633752D01*
X265012D01*
X277508Y-1621256D01*
X339988Y-1721224D02*
X265012D01*
X302500Y-1683736D01*
Y-1733720D01*
X-5012Y-1546280D02*
X-79988D01*
Y-1583767D01*
X-67492Y-1596264D01*
X-42500D01*
X-30004Y-1583767D01*
Y-1546280D01*
Y-1571272D02*
X-5012Y-1596264D01*
Y-1621256D02*
Y-1646248D01*
Y-1633752D01*
X-79988D01*
X-67492Y-1621256D01*
Y-1683736D02*
X-79988Y-1696232D01*
Y-1721223D01*
X-67492Y-1733719D01*
X-54996D01*
X-42500Y-1721223D01*
Y-1708728D01*
Y-1721223D01*
X-30004Y-1733719D01*
X-17508D01*
X-5012Y-1721223D01*
Y-1696232D01*
X-17508Y-1683736D01*
X447488Y-1548780D02*
X372512D01*
Y-1586268D01*
X385008Y-1598764D01*
X410000D01*
X422496Y-1586268D01*
Y-1548780D01*
Y-1573772D02*
X447488Y-1598764D01*
Y-1623756D02*
Y-1648748D01*
Y-1636252D01*
X372512D01*
X385008Y-1623756D01*
X447488Y-1736220D02*
Y-1686236D01*
X397504Y-1736220D01*
X385008D01*
X372512Y-1723724D01*
Y-1698732D01*
X385008Y-1686236D01*
X124988Y-1543776D02*
X50012D01*
Y-1581264D01*
X62508Y-1593760D01*
X87500D01*
X99996Y-1581264D01*
Y-1543776D01*
Y-1568768D02*
X124988Y-1593760D01*
Y-1618752D02*
Y-1643744D01*
Y-1631248D01*
X50012D01*
X62508Y-1618752D01*
X124988Y-1681232D02*
Y-1706224D01*
Y-1693728D01*
X50012D01*
X62508Y-1681232D01*
X-116280Y-177488D02*
Y-102512D01*
X-153768D01*
X-166264Y-115008D01*
Y-140000D01*
X-153768Y-152496D01*
X-116280D01*
X-141272D02*
X-166264Y-177488D01*
X-191256D02*
X-216248D01*
X-203752D01*
Y-102512D01*
X-191256Y-115008D01*
X-253736D02*
X-266232Y-102512D01*
X-291224D01*
X-303720Y-115008D01*
Y-164992D01*
X-291224Y-177488D01*
X-266232D01*
X-253736Y-164992D01*
Y-115008D01*
X-72480Y-440012D02*
Y-514988D01*
X-34992D01*
X-22496Y-502492D01*
Y-477500D01*
X-34992Y-465004D01*
X-72480D01*
X-47488D02*
X-22496Y-440012D01*
X2496Y-452508D02*
X14992Y-440012D01*
X39984D01*
X52480Y-452508D01*
Y-502492D01*
X39984Y-514988D01*
X14992D01*
X2496Y-502492D01*
Y-489996D01*
X14992Y-477500D01*
X52480D01*
X70012Y-1124980D02*
X144988D01*
Y-1087492D01*
X132492Y-1074996D01*
X107500D01*
X95004Y-1087492D01*
Y-1124980D01*
Y-1099988D02*
X70012Y-1074996D01*
X132492Y-1050004D02*
X144988Y-1037508D01*
Y-1012516D01*
X132492Y-1000020D01*
X119996D01*
X107500Y-1012516D01*
X95004Y-1000020D01*
X82508D01*
X70012Y-1012516D01*
Y-1037508D01*
X82508Y-1050004D01*
X95004D01*
X107500Y-1037508D01*
X119996Y-1050004D01*
X132492D01*
X107500Y-1037508D02*
Y-1012516D01*
X339980Y-1139988D02*
Y-1065012D01*
X302492D01*
X289996Y-1077508D01*
Y-1102500D01*
X302492Y-1114996D01*
X339980D01*
X314988D02*
X289996Y-1139988D01*
X265004Y-1065012D02*
X215020D01*
Y-1077508D01*
X265004Y-1127492D01*
Y-1139988D01*
X18552Y-1065804D02*
X-56424D01*
Y-1103291D01*
X-43928Y-1115787D01*
X-18936D01*
X-6440Y-1103291D01*
Y-1065804D01*
Y-1090796D02*
X18552Y-1115787D01*
X-56424Y-1190763D02*
X-43928Y-1165772D01*
X-18936Y-1140780D01*
X6056D01*
X18552Y-1153276D01*
Y-1178267D01*
X6056Y-1190763D01*
X-6440D01*
X-18936Y-1178267D01*
Y-1140780D01*
X487480Y-1132488D02*
Y-1057512D01*
X449992D01*
X437496Y-1070008D01*
Y-1095000D01*
X449992Y-1107496D01*
X487480D01*
X462488D02*
X437496Y-1132488D01*
X362520Y-1057512D02*
X412504D01*
Y-1095000D01*
X387512Y-1082504D01*
X375016D01*
X362520Y-1095000D01*
Y-1119992D01*
X375016Y-1132488D01*
X400008D01*
X412504Y-1119992D01*
X-447512Y-347520D02*
X-522488D01*
Y-385008D01*
X-509992Y-397504D01*
X-485000D01*
X-472504Y-385008D01*
Y-347520D01*
Y-372512D02*
X-447512Y-397504D01*
Y-459984D02*
X-522488D01*
X-485000Y-422496D01*
Y-472480D01*
X-332512Y-347520D02*
X-407488D01*
Y-385008D01*
X-394992Y-397504D01*
X-370000D01*
X-357504Y-385008D01*
Y-347520D01*
Y-372512D02*
X-332512Y-397504D01*
X-394992Y-422496D02*
X-407488Y-434992D01*
Y-459984D01*
X-394992Y-472480D01*
X-382496D01*
X-370000Y-459984D01*
Y-447488D01*
Y-459984D01*
X-357504Y-472480D01*
X-345008D01*
X-332512Y-459984D01*
Y-434992D01*
X-345008Y-422496D01*
X-260020Y-1684988D02*
Y-1610012D01*
X-297508D01*
X-310004Y-1622508D01*
Y-1647500D01*
X-297508Y-1659996D01*
X-260020D01*
X-285012D02*
X-310004Y-1684988D01*
X-384980D02*
X-334996D01*
X-384980Y-1635004D01*
Y-1622508D01*
X-372484Y-1610012D01*
X-347492D01*
X-334996Y-1622508D01*
X-270016Y-1579988D02*
Y-1505012D01*
X-307504D01*
X-320000Y-1517508D01*
Y-1542500D01*
X-307504Y-1554996D01*
X-270016D01*
X-295008D02*
X-320000Y-1579988D01*
X-344992D02*
X-369984D01*
X-357488D01*
Y-1505012D01*
X-344992Y-1517508D01*
X-1004984Y-1597488D02*
Y-1522512D01*
X-955000D01*
X-930008D02*
X-905016D01*
X-917512D01*
Y-1597488D01*
X-930008Y-1584992D01*
X-174992Y-1537504D02*
X-187488Y-1525008D01*
Y-1500016D01*
X-174992Y-1487520D01*
X-125008D01*
X-112512Y-1500016D01*
Y-1525008D01*
X-125008Y-1537504D01*
X-112512Y-1599984D02*
X-187488D01*
X-150000Y-1562496D01*
Y-1612480D01*
X-1047715Y-985991D02*
X-1060211Y-973495D01*
Y-948504D01*
X-1047715Y-936008D01*
X-997732D01*
X-985236Y-948504D01*
Y-973495D01*
X-997732Y-985991D01*
X-1047715Y-1010983D02*
X-1060211Y-1023480D01*
Y-1048471D01*
X-1047715Y-1060967D01*
X-1035219D01*
X-1022723Y-1048471D01*
Y-1035976D01*
Y-1048471D01*
X-1010228Y-1060967D01*
X-997732D01*
X-985236Y-1048471D01*
Y-1023480D01*
X-997732Y-1010983D01*
X-619991Y-111758D02*
X-632487Y-99262D01*
Y-74270D01*
X-619991Y-61774D01*
X-570007D01*
X-557511Y-74270D01*
Y-99262D01*
X-570007Y-111758D01*
X-557511Y-186734D02*
Y-136750D01*
X-607495Y-186734D01*
X-619991D01*
X-632487Y-174238D01*
Y-149246D01*
X-619991Y-136750D01*
X97512Y374980D02*
X159992D01*
X172488Y362484D01*
Y337492D01*
X159992Y324996D01*
X97512D01*
X110008Y300004D02*
X97512Y287508D01*
Y262516D01*
X110008Y250020D01*
X122504D01*
X135000Y262516D01*
Y275012D01*
Y262516D01*
X147496Y250020D01*
X159992D01*
X172488Y262516D01*
Y287508D01*
X159992Y300004D01*
X1072512Y-722480D02*
X1147488D01*
Y-684992D01*
X1134992Y-672496D01*
X1110000D01*
X1097504Y-684992D01*
Y-722480D01*
X1072512Y-597520D02*
Y-647504D01*
X1122496Y-597520D01*
X1134992D01*
X1147488Y-610016D01*
Y-635008D01*
X1134992Y-647504D01*
X-85008Y1016264D02*
X-72512Y1003768D01*
Y978776D01*
X-85008Y966280D01*
X-134992D01*
X-147488Y978776D01*
Y1003768D01*
X-134992Y1016264D01*
X-147488Y1041256D02*
Y1066248D01*
Y1053752D01*
X-72512D01*
X-85008Y1041256D01*
X-72512Y1153720D02*
X-85008Y1128728D01*
X-110000Y1103736D01*
X-134992D01*
X-147488Y1116232D01*
Y1141224D01*
X-134992Y1153720D01*
X-122496D01*
X-110000Y1141224D01*
Y1103736D01*
X-617532Y-547488D02*
Y-472512D01*
X-655020D01*
X-667516Y-485008D01*
Y-510000D01*
X-655020Y-522496D01*
X-617532D01*
X-642524D02*
X-667516Y-547488D01*
X-742492D02*
X-692508D01*
X-742492Y-497504D01*
Y-485008D01*
X-729996Y-472512D01*
X-705004D01*
X-692508Y-485008D01*
X-767484Y-472512D02*
X-817468D01*
Y-485008D01*
X-767484Y-534992D01*
Y-547488D01*
X1007488Y1173720D02*
X932512D01*
Y1136232D01*
X945008Y1123736D01*
X970000D01*
X982496Y1136232D01*
Y1173720D01*
Y1148728D02*
X1007488Y1123736D01*
Y1098744D02*
Y1073752D01*
Y1086248D01*
X932512D01*
X945008Y1098744D01*
X994992Y1036264D02*
X1007488Y1023768D01*
Y998776D01*
X994992Y986280D01*
X945008D01*
X932512Y998776D01*
Y1023768D01*
X945008Y1036264D01*
X957504D01*
X970000Y1023768D01*
Y986280D01*
X1309980Y-1030012D02*
Y-1092492D01*
X1297484Y-1104988D01*
X1272492D01*
X1259996Y-1092492D01*
Y-1030012D01*
X1197516Y-1104988D02*
Y-1030012D01*
X1235004Y-1067500D01*
X1185020D01*
X577488Y-1287532D02*
X502512D01*
Y-1325020D01*
X515008Y-1337516D01*
X540000D01*
X552496Y-1325020D01*
Y-1287532D01*
Y-1312524D02*
X577488Y-1337516D01*
Y-1412492D02*
Y-1362508D01*
X527504Y-1412492D01*
X515008D01*
X502512Y-1399996D01*
Y-1375004D01*
X515008Y-1362508D01*
X564992Y-1437484D02*
X577488Y-1449980D01*
Y-1474972D01*
X564992Y-1487468D01*
X515008D01*
X502512Y-1474972D01*
Y-1449980D01*
X515008Y-1437484D01*
X527504D01*
X540000Y-1449980D01*
Y-1487468D01*
X812468Y-1362488D02*
Y-1287512D01*
X774980D01*
X762484Y-1300008D01*
Y-1325000D01*
X774980Y-1337496D01*
X812468D01*
X787476D02*
X762484Y-1362488D01*
X687508D02*
X737492D01*
X687508Y-1312504D01*
Y-1300008D01*
X700004Y-1287512D01*
X724996D01*
X737492Y-1300008D01*
X662516D02*
X650020Y-1287512D01*
X625028D01*
X612532Y-1300008D01*
Y-1312504D01*
X625028Y-1325000D01*
X612532Y-1337496D01*
Y-1349992D01*
X625028Y-1362488D01*
X650020D01*
X662516Y-1349992D01*
Y-1337496D01*
X650020Y-1325000D01*
X662516Y-1312504D01*
Y-1300008D01*
X650020Y-1325000D02*
X625028D01*
X-1194992Y123736D02*
X-1207488Y136232D01*
Y161224D01*
X-1194992Y173720D01*
X-1145008D01*
X-1132512Y161224D01*
Y136232D01*
X-1145008Y123736D01*
X-1132512Y98744D02*
Y73752D01*
Y86248D01*
X-1207488D01*
X-1194992Y98744D01*
X-1207488Y-13720D02*
Y36264D01*
X-1170000D01*
X-1182496Y11272D01*
Y-1224D01*
X-1170000Y-13720D01*
X-1145008D01*
X-1132512Y-1224D01*
Y23768D01*
X-1145008Y36264D01*
X-266236Y342508D02*
X-278732Y330012D01*
X-303724D01*
X-316220Y342508D01*
Y392492D01*
X-303724Y404988D01*
X-278732D01*
X-266236Y392492D01*
X-241244Y404988D02*
X-216252D01*
X-228748D01*
Y330012D01*
X-241244Y342508D01*
X-178764D02*
X-166268Y330012D01*
X-141276D01*
X-128780Y342508D01*
Y355004D01*
X-141276Y367500D01*
X-153772D01*
X-141276D01*
X-128780Y379996D01*
Y392492D01*
X-141276Y404988D01*
X-166268D01*
X-178764Y392492D01*
X966236Y-1042508D02*
X978732Y-1030012D01*
X1003724D01*
X1016220Y-1042508D01*
Y-1092492D01*
X1003724Y-1104988D01*
X978732D01*
X966236Y-1092492D01*
X941244Y-1104988D02*
X916252D01*
X928748D01*
Y-1030012D01*
X941244Y-1042508D01*
X878764Y-1030012D02*
X828780D01*
Y-1042508D01*
X878764Y-1092492D01*
Y-1104988D01*
X-971220Y1219988D02*
Y1145012D01*
X-933732D01*
X-921236Y1157508D01*
Y1182500D01*
X-933732Y1194996D01*
X-971220D01*
X-946228D02*
X-921236Y1219988D01*
X-896244D02*
X-871252D01*
X-883748D01*
Y1145012D01*
X-896244Y1157508D01*
X-833764Y1145012D02*
X-783780D01*
Y1157508D01*
X-833764Y1207492D01*
Y1219988D01*
X-1190012Y1383720D02*
X-1264988D01*
Y1346232D01*
X-1252492Y1333736D01*
X-1227500D01*
X-1215004Y1346232D01*
Y1383720D01*
Y1358728D02*
X-1190012Y1333736D01*
Y1308744D02*
Y1283752D01*
Y1296248D01*
X-1264988D01*
X-1252492Y1308744D01*
X-1264988Y1196280D02*
X-1252492Y1221272D01*
X-1227500Y1246264D01*
X-1202508D01*
X-1190012Y1233768D01*
Y1208776D01*
X-1202508Y1196280D01*
X-1215004D01*
X-1227500Y1208776D01*
Y1246264D01*
X-47488Y-113720D02*
X27488D01*
Y-76232D01*
X14992Y-63736D01*
X-10000D01*
X-22496Y-76232D01*
Y-113720D01*
Y-88728D02*
X-47488Y-63736D01*
Y-38744D02*
Y-13752D01*
Y-26248D01*
X27488D01*
X14992Y-38744D01*
Y23736D02*
X27488Y36232D01*
Y61224D01*
X14992Y73720D01*
X2496D01*
X-10000Y61224D01*
X-22496Y73720D01*
X-34992D01*
X-47488Y61224D01*
Y36232D01*
X-34992Y23736D01*
X-22496D01*
X-10000Y36232D01*
X2496Y23736D01*
X14992D01*
X-10000Y36232D02*
Y61224D01*
X567488Y1164968D02*
X492512D01*
Y1127480D01*
X505008Y1114984D01*
X530000D01*
X542496Y1127480D01*
Y1164968D01*
Y1139976D02*
X567488Y1114984D01*
Y1040008D02*
Y1089992D01*
X517504Y1040008D01*
X505008D01*
X492512Y1052504D01*
Y1077496D01*
X505008Y1089992D01*
X567488Y977528D02*
X492512D01*
X530000Y1015016D01*
Y965032D01*
X677488Y1167468D02*
X602512D01*
Y1129980D01*
X615008Y1117484D01*
X640000D01*
X652496Y1129980D01*
Y1167468D01*
Y1142476D02*
X677488Y1117484D01*
Y1042508D02*
Y1092492D01*
X627504Y1042508D01*
X615008D01*
X602512Y1055004D01*
Y1079996D01*
X615008Y1092492D01*
Y1017516D02*
X602512Y1005020D01*
Y980028D01*
X615008Y967532D01*
X627504D01*
X640000Y980028D01*
Y992524D01*
Y980028D01*
X652496Y967532D01*
X664992D01*
X677488Y980028D01*
Y1005020D01*
X664992Y1017516D01*
X356494Y-874571D02*
Y-799595D01*
X319006D01*
X306510Y-812091D01*
Y-837083D01*
X319006Y-849578D01*
X356494D01*
X331502D02*
X306510Y-874571D01*
X231534D02*
X281518D01*
X231534Y-824587D01*
Y-812091D01*
X244030Y-799595D01*
X269022D01*
X281518Y-812091D01*
X156558Y-874571D02*
X206542D01*
X156558Y-824587D01*
Y-812091D01*
X169054Y-799595D01*
X194046D01*
X206542Y-812091D01*
X897488Y1169968D02*
X822512D01*
Y1132480D01*
X835008Y1119984D01*
X860000D01*
X872496Y1132480D01*
Y1169968D01*
Y1144976D02*
X897488Y1119984D01*
Y1045008D02*
Y1094992D01*
X847504Y1045008D01*
X835008D01*
X822512Y1057504D01*
Y1082496D01*
X835008Y1094992D01*
Y1020016D02*
X822512Y1007520D01*
Y982528D01*
X835008Y970032D01*
X884992D01*
X897488Y982528D01*
Y1007520D01*
X884992Y1020016D01*
X835008D01*
X147488Y-20032D02*
X72512D01*
Y-57520D01*
X85008Y-70016D01*
X110000D01*
X122496Y-57520D01*
Y-20032D01*
Y-45024D02*
X147488Y-70016D01*
Y-144992D02*
Y-95008D01*
X97504Y-144992D01*
X85008D01*
X72512Y-132496D01*
Y-107504D01*
X85008Y-95008D01*
X72512Y-219968D02*
Y-169984D01*
X110000D01*
X97504Y-194976D01*
Y-207472D01*
X110000Y-219968D01*
X134992D01*
X147488Y-207472D01*
Y-182480D01*
X134992Y-169984D01*
X-47488Y162528D02*
X27488D01*
Y200016D01*
X14992Y212512D01*
X-10000D01*
X-22496Y200016D01*
Y162528D01*
Y187520D02*
X-47488Y212512D01*
Y287488D02*
Y237504D01*
X2496Y287488D01*
X14992D01*
X27488Y274992D01*
Y250000D01*
X14992Y237504D01*
X-47488Y312480D02*
Y337472D01*
Y324976D01*
X27488D01*
X14992Y312480D01*
X-1060000Y1142508D02*
Y1192492D01*
X-1047504Y1204988D01*
X-1022512D01*
X-1010016Y1192492D01*
Y1142508D01*
X-1022512Y1130012D01*
X-1047504D01*
X-1035008Y1155004D02*
X-1060000Y1130012D01*
X-1047504D02*
X-1060000Y1142508D01*
X-1084992Y1130012D02*
X-1109984D01*
X-1097488D01*
Y1204988D01*
X-1084992Y1192492D01*
X-487509Y239996D02*
X-537492D01*
X-549988Y252492D01*
Y277484D01*
X-537492Y289980D01*
X-487509D01*
X-475013Y277484D01*
Y252492D01*
X-500005Y264988D02*
X-475013Y239996D01*
Y252492D02*
X-487509Y239996D01*
X-475013Y165020D02*
Y215004D01*
X-524996Y165020D01*
X-537492D01*
X-549988Y177516D01*
Y202508D01*
X-537492Y215004D01*
X-1602512Y-1090016D02*
X-1677488D01*
Y-1127504D01*
X-1664992Y-1140000D01*
X-1640000D01*
X-1627504Y-1127504D01*
Y-1090016D01*
X-1602512Y-1164992D02*
Y-1189984D01*
Y-1177488D01*
X-1677488D01*
X-1664992Y-1164992D01*
X-1272488Y544980D02*
X-1197512D01*
Y494996D01*
Y420020D02*
Y470004D01*
X-1247496Y420020D01*
X-1259992D01*
X-1272488Y432516D01*
Y457508D01*
X-1259992Y470004D01*
X-802488Y842480D02*
X-727512D01*
Y804992D01*
X-740008Y792496D01*
X-789992D01*
X-802488Y804992D01*
Y842480D01*
X-789992Y767504D02*
X-802488Y755008D01*
Y730016D01*
X-789992Y717520D01*
X-777496D01*
X-765000Y730016D01*
Y742512D01*
Y730016D01*
X-752504Y717520D01*
X-740008D01*
X-727512Y730016D01*
Y755008D01*
X-740008Y767504D01*
X-67488Y802480D02*
X7488D01*
Y764992D01*
X-5008Y752496D01*
X-54992D01*
X-67488Y764992D01*
Y802480D01*
X7488Y677520D02*
Y727504D01*
X-42496Y677520D01*
X-54992D01*
X-67488Y690016D01*
Y715008D01*
X-54992Y727504D01*
X-322484Y460012D02*
Y534988D01*
X-284996D01*
X-272500Y522492D01*
Y472508D01*
X-284996Y460012D01*
X-322484D01*
X-247508Y534988D02*
X-222516D01*
X-235012D01*
Y460012D01*
X-247508Y472508D01*
X725012Y1392508D02*
X712515Y1380012D01*
X687524D01*
X675028Y1392508D01*
Y1442492D01*
X687524Y1454988D01*
X712515D01*
X725012Y1442492D01*
X750004Y1454988D02*
Y1380012D01*
X799987Y1454988D01*
Y1380012D01*
X824980Y1454988D02*
X849972D01*
X837476D01*
Y1380012D01*
X824980Y1392508D01*
X-754992Y1053736D02*
X-767488Y1066232D01*
Y1091224D01*
X-754992Y1103720D01*
X-705008D01*
X-692512Y1091224D01*
Y1066232D01*
X-705008Y1053736D01*
X-692512Y1028744D02*
Y1003752D01*
Y1016248D01*
X-767488D01*
X-754992Y1028744D01*
X-692512Y928776D02*
X-767488D01*
X-730000Y966264D01*
Y916280D01*
X-943760Y1454992D02*
X-931264Y1467488D01*
X-906272D01*
X-893776Y1454992D01*
Y1405008D01*
X-906272Y1392512D01*
X-931264D01*
X-943760Y1405008D01*
X-968752Y1392512D02*
X-993744D01*
X-981248D01*
Y1467488D01*
X-968752Y1454992D01*
X-1031232Y1392512D02*
X-1056224D01*
X-1043728D01*
Y1467488D01*
X-1031232Y1454992D01*
X-871264Y-647508D02*
X-858768Y-635012D01*
X-833776D01*
X-821280Y-647508D01*
Y-697492D01*
X-833776Y-709988D01*
X-858768D01*
X-871264Y-697492D01*
X-896256Y-709988D02*
X-921248D01*
X-908752D01*
Y-635012D01*
X-896256Y-647508D01*
X-1008720Y-709988D02*
X-958736D01*
X-1008720Y-660004D01*
Y-647508D01*
X-996224Y-635012D01*
X-971232D01*
X-958736Y-647508D01*
X-1272492Y-641264D02*
X-1284988Y-628768D01*
Y-603776D01*
X-1272492Y-591280D01*
X-1222508D01*
X-1210012Y-603776D01*
Y-628768D01*
X-1222508Y-641264D01*
X-1210012Y-666256D02*
Y-691248D01*
Y-678752D01*
X-1284988D01*
X-1272492Y-666256D01*
Y-728736D02*
X-1284988Y-741232D01*
Y-766224D01*
X-1272492Y-778720D01*
X-1222508D01*
X-1210012Y-766224D01*
Y-741232D01*
X-1222508Y-728736D01*
X-1272492D01*
X-350004Y1449992D02*
X-337508Y1462488D01*
X-312516D01*
X-300020Y1449992D01*
Y1400008D01*
X-312516Y1387512D01*
X-337508D01*
X-350004Y1400008D01*
X-374996D02*
X-387492Y1387512D01*
X-412484D01*
X-424980Y1400008D01*
Y1449992D01*
X-412484Y1462488D01*
X-387492D01*
X-374996Y1449992D01*
Y1437496D01*
X-387492Y1425000D01*
X-424980D01*
X-190004Y1447492D02*
X-177508Y1459988D01*
X-152516D01*
X-140020Y1447492D01*
Y1397508D01*
X-152516Y1385012D01*
X-177508D01*
X-190004Y1397508D01*
X-214996Y1447492D02*
X-227492Y1459988D01*
X-252484D01*
X-264980Y1447492D01*
Y1434996D01*
X-252484Y1422500D01*
X-264980Y1410004D01*
Y1397508D01*
X-252484Y1385012D01*
X-227492D01*
X-214996Y1397508D01*
Y1410004D01*
X-227492Y1422500D01*
X-214996Y1434996D01*
Y1447492D01*
X-227492Y1422500D02*
X-252484D01*
X37492Y1272504D02*
X49988Y1260008D01*
Y1235016D01*
X37492Y1222520D01*
X-12492D01*
X-24988Y1235016D01*
Y1260008D01*
X-12492Y1272504D01*
X49988Y1297496D02*
Y1347480D01*
X37492D01*
X-12492Y1297496D01*
X-24988D01*
X230008Y1317496D02*
X217512Y1329992D01*
Y1354984D01*
X230008Y1367480D01*
X279992D01*
X292488Y1354984D01*
Y1329992D01*
X279992Y1317496D01*
X217512Y1242520D02*
X230008Y1267512D01*
X255000Y1292504D01*
X279992D01*
X292488Y1280008D01*
Y1255016D01*
X279992Y1242520D01*
X267496D01*
X255000Y1255016D01*
Y1292504D01*
X597492Y1285004D02*
X609988Y1272508D01*
Y1247516D01*
X597492Y1235020D01*
X547508D01*
X535012Y1247516D01*
Y1272508D01*
X547508Y1285004D01*
X609988Y1359980D02*
Y1309996D01*
X572500D01*
X584996Y1334988D01*
Y1347484D01*
X572500Y1359980D01*
X547508D01*
X535012Y1347484D01*
Y1322492D01*
X547508Y1309996D01*
X-1182500Y-1564992D02*
X-1194996Y-1577488D01*
X-1219988D01*
X-1232484Y-1564992D01*
Y-1515008D01*
X-1219988Y-1502512D01*
X-1194996D01*
X-1182500Y-1515008D01*
X-1157508Y-1502512D02*
X-1132516D01*
X-1145012D01*
Y-1577488D01*
X-1157508Y-1564992D01*
D58*
X318758Y-992500D02*
D03*
X-761242Y170000D02*
D03*
D59*
X-610000Y831095D02*
D03*
X-180000D02*
D03*
X-390000Y648905D02*
D03*
M02*
