M48
;Layer_Color=9474304
;FILE_FORMAT=2:5
INCH,LZ
;TYPE=PLATED
T01F00S00C0.01200
T02F00S00C0.01500
T03F00S00C0.03543
T04F00S00C0.05512
T05F00S00C0.05906
%
T01
X-0045669Y-0042913
Y-0039767
X-0040945Y-0040157
X-0035335Y-0032579
X-0038681Y-002687
Y-0023524
X-0037795Y-0019193
X-003435
X-0031004
X-0021457Y-0019488
X-0016535Y-0015748
X-0022047Y-0030315
X-0016043Y-0036516
X-0012795Y-0039717
X-0009449Y-0036319
X-000935Y-004311
X-001624
X-0020669Y-0048228
X-0023622
X-0026575
X-0029528
X-0029921Y-0042913
X-0023622Y-0056102
X-0020669
X-0017717
X-0001575Y-0051181
X-0005118Y-0047343
X000078Y-0043405
X0000821Y-0040405
X0000787Y-0037402
X0005906Y-0039075
X0010335Y-0042717
X0014961Y-0043307
X001939Y-0044094
X0022723Y-005088
X0025591Y-005
X0022835Y-0056693
X0031496
X003435Y-0043799
X0033366Y-0041043
X0033957Y-0032382
X0026772Y-003189
X001378
X0012992Y-0020472
X0016535Y-0018898
X0020866
X0006299Y-0019685
X0007087Y-0012205
X0005906Y-0007874
Y-0001575
X001063Y-0003937
X0005906Y0005906
X0012205Y0010236
X0016929Y0005906
X0025197Y0007874
X0032283Y0005906
Y-0004331
X0025197Y-0002756
X-0004026Y-0027657
X000748Y-0052461
X0011811Y-0052461
X0016142Y-0052461
X-0032087Y-0008071
X-0031693Y000128
X-0026969Y0002264
X-0036909Y-0001181
X-0043701Y-0004035
X-0045079Y0000689
X-0040354Y-0011614
X0037402Y-0008268
Y0
X0037008Y0009843
X0038976Y-0037402
X0043701
X0042126Y-0045669
X0045669
X0055118Y-0057087
X0060039Y-0062008
X0036024Y-0075965
X0037402Y0040551
X0037008Y0045669
X0045276Y0046457
X0031496Y0045669
X002874Y0037402
X0024803Y0038976
X002126Y004685
X002126Y0054298
X002426Y0054331
X0007021Y0055413
X0005118Y0041339
X0009843Y0038583
X0009055Y003189
X0005906Y0023228
Y0014567
X-0001575Y001378
X-0010236Y0016929
X-0007087Y0030709
X-0015354
X-0029134Y003622
X-0028346Y0040551
X-0031496Y0050787
X-0044488Y0053937
X-0045276Y0041339
Y003622
X-0005118Y0040551
X0012205Y0018898
X0016929Y0014567
X0025197Y0016929
X0032283Y0014567
T02
X-0001476Y-0031299
X0000394Y-0005118
X-0023622Y0001181
X-0035433Y0008661
X-0024409Y004685
X-0025984Y0050394
X-0016535Y0055512
X-0014764Y0043307
X0Y0042323
X0002362Y0035433
T03
X-0056299Y-0056457
X-0056299Y-0046457
X-0056693Y-0021654
X0004724Y-0025984
X0012598
X0020472
X0028346
X003622
X-0056693Y0025591
T04
X-0055118Y-0035039
T05
X-0026772Y-0012992
X-0007087
M30
